<svg width="16" height="14" viewBox="0 0 16 14" xmlns="http://www.w3.org/2000/svg"><title>Group 12</title><path d="M12.276 6.246H6.547V8.18h3.495c-.521 1.682-2.072 2.901-3.904 2.901-2.26 0-4.092-1.855-4.092-4.144s1.832-4.144 4.092-4.144c1.138 0 2.167.47 2.909 1.23l1.386-1.526A6.078 6.078 0 0 0 6.138.72C2.748.72 0 3.504 0 6.937s2.748 6.217 6.138 6.217c2.97 0 5.569-2.136 6.138-4.974V6.246zm3.719-.003h-1.171V5.056h-1.005v1.187h-1.172V7.26h1.172v1.187h1.005V7.26h1.171z" fill="#FFF" opacity=".5"/></svg>