<svg width="17" height="16" viewBox="0 0 17 16" xmlns="http://www.w3.org/2000/svg"><title>Group 13</title><path d="M.853 15.534h2.079c.287 0 .52-.236.52-.527V5.79a.523.523 0 0 0-.52-.526H.852a.523.523 0 0 0-.519.526v9.217c0 .29.233.527.52.527zm0-11.891h2.079c.287 0 .52-.236.52-.526V1.244a.523.523 0 0 0-.52-.527H.852a.523.523 0 0 0-.519.527v1.873c0 .29.233.526.52.526zm14.691 2.69c-.292-.39-.723-.711-1.292-.963a4.624 4.624 0 0 0-1.887-.377c-1.396 0-2.58.541-3.55 1.622-.193.215-.333.168-.333-.123V5.79a.523.523 0 0 0-.52-.526H6.106a.523.523 0 0 0-.519.526v9.217c0 .29.232.527.52.527h2.078c.287 0 .52-.236.52-.527v-3.205c0-1.336.08-2.251.238-2.746a2.27 2.27 0 0 1 .882-1.193c.43-.3.914-.45 1.454-.45.422 0 .782.105 1.082.315.3.21.516.505.65.883.132.38.199 1.214.199 2.504v3.892c0 .29.232.527.52.527h2.078c.287 0 .52-.236.52-.527v-5.22c0-.922-.058-1.631-.172-2.126a3.506 3.506 0 0 0-.61-1.328z" fill="#FFF" opacity=".5"/></svg>