<svg width="17" height="14" viewBox="0 0 17 14" xmlns="http://www.w3.org/2000/svg"><title>Group 16</title><path d="M16.667 2.285a6.484 6.484 0 0 1-1.885.524A3.334 3.334 0 0 0 16.225.97a6.562 6.562 0 0 1-2.086.808A3.252 3.252 0 0 0 11.744.726C9.93.726 8.46 2.216 8.46 4.053c0 .26.03.515.085.759C5.82 4.672 3.4 3.348 1.781 1.334a3.338 3.338 0 0 0-.443 1.673c0 1.155.58 2.174 1.46 2.77a3.248 3.248 0 0 1-1.487-.418V5.4c0 1.612 1.131 2.958 2.632 3.264a3.282 3.282 0 0 1-.865.116c-.212 0-.417-.02-.618-.061.418 1.323 1.63 2.285 3.066 2.311a6.528 6.528 0 0 1-4.86 1.377 9.185 9.185 0 0 0 5.032 1.497c6.038 0 9.338-5.07 9.338-9.469l-.011-.43a6.605 6.605 0 0 0 1.642-1.72z" fill="#FFF" opacity=".5"/></svg>